<?xml version="1.0" standalone="no"?>
<!DOCTYPE svg PUBLIC "-//W3C//DTD SVG 20010904//EN"
 "http://www.w3.org/TR/2001/REC-SVG-20010904/DTD/svg10.dtd">
<svg version="1.0" xmlns="http://www.w3.org/2000/svg"
 width="695.000000pt" height="680.000000pt" viewBox="0 0 695.000000 680.000000"
 preserveAspectRatio="xMidYMid meet">
 <rect width="695.000000pt" height="680.000000pt" fill="#ffffff"/>
<g transform="translate(0.000000,680.000000) scale(0.100000,-0.100000)"
fill="#000000" stroke="none">
<path d="M486 6355 c-7 -19 -8 -1058 -1 -1076 4 -11 34 -14 143 -12 75 1 143
2 150 2 9 1 12 88 12 401 l0 401 383 -1 c210 -1 390 -1 400 -1 15 1 17 15 17
151 l0 150 -549 0 c-477 0 -550 -2 -555 -15z"/>
<path d="M5357 6363 c-3 -5 -6 -72 -6 -150 l-2 -143 363 -1 c311 -2 413 -3
438 -8 3 -1 4 -178 2 -394 l-3 -394 133 -6 c73 -4 142 -5 153 -3 20 3 20 12
23 554 l2 552 -549 0 c-303 0 -552 -3 -554 -7z"/>
<path d="M4795 5676 c-323 -75 -557 -290 -655 -601 -16 -52 -23 -104 -27 -205
-4 -121 -2 -145 20 -231 87 -334 349 -576 689 -635 462 -81 907 224 993 681
22 115 16 278 -15 385 -78 276 -286 488 -570 581 -85 28 -110 32 -235 35 -95
3 -159 -1 -200 -10z m327 -414 c113 -40 207 -127 262 -242 26 -55 31 -79 34
-160 3 -77 -1 -106 -17 -154 -113 -323 -512 -416 -752 -177 -246 247 -127 660
216 748 67 17 187 10 257 -15z"/>
<path d="M3334 5670 c-84 -20 -117 -60 -192 -240 -22 -52 -164 -383 -317 -735
-152 -352 -281 -650 -286 -662 l-9 -23 228 0 228 0 194 449 c107 247 198 446
202 442 4 -4 76 -164 159 -356 83 -193 169 -392 191 -442 l40 -93 224 0 c123
0 224 4 224 8 0 4 -42 105 -93 223 -52 118 -203 468 -337 779 -264 610 -272
626 -355 649 -44 12 -56 12 -101 1z"/>
<path d="M1110 4928 c0 -502 4 -746 11 -773 14 -50 84 -120 136 -134 25 -7
234 -11 591 -11 l552 0 0 200 0 200 -440 0 -440 0 0 625 0 625 -205 0 -205 0
0 -732z"/>
<path d="M2017 3304 c-393 -71 -728 -351 -860 -720 -125 -349 -66 -737 159
-1036 173 -231 424 -383 719 -435 180 -31 446 -3 604 64 l44 19 31 -33 31 -34
343 3 344 3 -161 187 c-89 103 -161 190 -161 194 0 3 20 37 45 73 372 561 179
1307 -417 1606 -120 60 -200 87 -332 110 -108 18 -284 18 -389 -1z m390 -539
c147 -50 267 -151 338 -286 85 -162 87 -368 4 -531 l-19 -38 -315 0 c-173 0
-315 -2 -315 -5 0 -3 50 -64 111 -136 61 -72 108 -133 105 -136 -12 -13 -184
-4 -246 12 -202 53 -371 220 -425 421 -25 93 -22 224 8 317 101 316 440 487
754 382z"/>
<path d="M4060 3259 c-61 -27 -108 -74 -136 -134 l-24 -50 0 -972 0 -973 265
0 265 0 0 325 0 325 173 0 172 0 228 -325 229 -325 305 0 c240 0 303 3 297 12
-5 7 -116 163 -247 346 -132 183 -238 334 -236 336 2 2 42 23 89 47 112 57
249 191 302 294 63 123 82 203 82 345 0 226 -63 379 -224 540 -103 103 -186
155 -325 201 -69 23 -74 24 -620 26 -537 3 -551 3 -595 -18z m1085 -522 c92
-42 148 -128 146 -228 -1 -100 -45 -169 -135 -217 l-51 -27 -335 0 -335 0 -3
248 -2 248 337 -3 c300 -3 343 -5 378 -21z"/>
<path d="M487 1486 c-3 -8 -6 -255 -7 -549 0 -472 1 -535 15 -541 8 -3 257 -4
553 -3 l537 2 3 153 3 152 -401 0 -400 0 0 400 0 400 -149 0 c-119 0 -150 -3
-154 -14z"/>
<path d="M6156 1492 c-3 -4 -4 -184 -3 -400 l2 -392 -400 -2 -400 -3 0 -150 0
-150 550 0 550 0 3 553 2 552 -149 0 c-83 0 -152 -4 -155 -8z"/>
</g>
</svg>
